<svg xmlns="http://www.w3.org/2000/svg" xmlns:xlink="http://www.w3.org/1999/xlink" width="2000" zoomAndPan="magnify" viewBox="0 0 1500 1499.999933" height="2000" preserveAspectRatio="xMidYMid meet" version="1.0"><defs><clipPath id="3d5ddb0222"><path d="M 544.023438 29.601562 L 1364.523438 29.601562 L 1364.523438 853 L 544.023438 853 Z M 544.023438 29.601562 " clip-rule="nonzero"/></clipPath><clipPath id="5b3cd378ea"><path d="M 135.222656 647.238281 L 955.71875 647.238281 L 955.71875 1470.738281 L 135.222656 1470.738281 Z M 135.222656 647.238281 " clip-rule="nonzero"/></clipPath></defs><g clip-path="url(#3d5ddb0222)"><path fill="#97182e" d="M 954.644531 29.671875 C 990.867188 29.714844 1009.925781 29.714844 1011.808594 29.671875 C 1014.457031 29.53125 1016.792969 31.375 1017.273438 33.980469 L 1033.03125 122.65625 C 1033.421875 124.859375 1035.03125 126.671875 1037.210938 127.347656 C 1064.605469 135.320312 1090.796875 146.445312 1115.789062 160.722656 C 1117.242188 161.582031 1119.078125 161.507812 1120.484375 160.527344 L 1195.78125 107.347656 C 1197.386719 106.214844 1199.570312 106.382812 1200.992188 107.734375 L 1287.09375 188.691406 C 1288.617188 190.140625 1288.859375 192.464844 1287.675781 194.15625 L 1232.824219 272.542969 C 1232.039062 273.652344 1231.964844 275.125 1232.632812 276.335938 C 1246.777344 302.273438 1257.667969 329.878906 1265.296875 359.15625 C 1265.921875 361.53125 1267.925781 363.304688 1270.375 363.660156 L 1362.390625 376.261719 C 1363.691406 376.457031 1364.652344 377.550781 1364.644531 378.835938 L 1364.644531 499.53125 C 1364.640625 501.636719 1363.117188 503.429688 1361.042969 503.777344 L 1270.699219 518.375 C 1268.378906 518.769531 1266.519531 520.453125 1265.941406 522.683594 C 1257.882812 553.078125 1246.734375 581.351562 1232.503906 607.5 C 1231.796875 608.804688 1231.875 610.375 1232.695312 611.550781 L 1287.933594 689.808594 C 1288.773438 690.984375 1288.582031 692.632812 1287.484375 693.664062 L 1202.800781 772.691406 C 1200.632812 774.726562 1197.335938 774.964844 1194.890625 773.269531 L 1123 722.921875 C 1120.953125 721.5 1118.269531 721.351562 1116.058594 722.535156 C 1091.109375 736.125 1064.378906 747.1875 1035.871094 755.71875 C 1033.589844 756.378906 1031.890625 758.304688 1031.5 760.667969 L 1015.871094 850.371094 C 1015.632812 851.660156 1014.542969 852.617188 1013.234375 852.683594 C 1012.164062 852.726562 992.484375 852.75 954.207031 852.75 C 915.964844 852.710938 896.3125 852.664062 895.238281 852.621094 C 893.929688 852.550781 892.839844 851.597656 892.601562 850.308594 L 877.039062 760.605469 C 876.644531 758.246094 874.945312 756.320312 872.667969 755.65625 C 844.160156 747.082031 817.453125 735.976562 792.546875 722.347656 C 790.332031 721.160156 787.648438 721.308594 785.605469 722.734375 L 713.648438 773.019531 C 711.207031 774.71875 707.90625 774.476562 705.738281 772.441406 L 621.113281 693.347656 C 620.019531 692.308594 619.828125 690.664062 620.664062 689.492188 L 676.03125 611.234375 C 676.855469 610.054688 676.929688 608.484375 676.222656 607.183594 C 661.992188 581.03125 650.867188 552.761719 642.851562 522.367188 C 642.269531 520.140625 640.40625 518.453125 638.09375 518.058594 L 547.738281 503.328125 C 545.664062 502.980469 544.140625 501.1875 544.136719 499.085938 L 544.265625 378.386719 C 544.257812 377.101562 545.214844 376.007812 546.515625 375.8125 L 638.597656 363.339844 C 641.050781 362.984375 643.054688 361.210938 643.675781 358.835938 C 651.308594 329.558594 662.21875 301.949219 676.40625 276.015625 C 677.078125 274.804688 676.996094 273.332031 676.210938 272.222656 L 621.429688 193.839844 C 620.257812 192.132812 620.535156 189.808594 622.074219 188.375 L 708.242188 107.480469 C 709.660156 106.125 711.84375 105.964844 713.449219 107.09375 L 788.6875 160.335938 C 790.089844 161.3125 791.925781 161.386719 793.378906 160.527344 C 818.371094 146.296875 844.585938 135.210938 872.023438 127.285156 C 874.199219 126.605469 875.8125 124.792969 876.199219 122.589844 L 892.015625 33.914062 C 892.5 31.308594 894.835938 29.464844 897.484375 29.605469 C 899.367188 29.652344 918.421875 29.671875 954.644531 29.671875 Z M 1144.984375 442.175781 C 1144.984375 336.984375 1059.707031 251.710938 954.519531 251.710938 C 849.328125 251.710938 764.054688 336.984375 764.054688 442.175781 C 764.054688 547.367188 849.328125 632.640625 954.519531 632.640625 C 1059.707031 632.640625 1144.984375 547.367188 1144.984375 442.175781 Z M 1144.984375 442.175781 " fill-opacity="1" fill-rule="nonzero"/></g><g clip-path="url(#5b3cd378ea)"><path fill="#97182e" d="M 545.84375 647.308594 C 582.066406 647.351562 601.125 647.351562 603.007812 647.308594 C 605.65625 647.167969 607.992188 649.015625 608.472656 651.617188 L 624.230469 740.292969 C 624.621094 742.5 626.230469 744.308594 628.410156 744.984375 C 655.804688 752.957031 681.996094 764.082031 706.988281 778.359375 C 708.441406 779.21875 710.277344 779.144531 711.683594 778.164062 L 786.980469 724.984375 C 788.585938 723.855469 790.769531 724.019531 792.191406 725.371094 L 878.292969 806.328125 C 879.816406 807.777344 880.058594 810.105469 878.875 811.796875 L 824.023438 890.179688 C 823.238281 891.289062 823.164062 892.765625 823.832031 893.972656 C 837.976562 919.910156 848.867188 947.515625 856.496094 976.796875 C 857.121094 979.171875 859.121094 980.945312 861.574219 981.296875 L 953.589844 993.902344 C 954.890625 994.09375 955.851562 995.1875 955.84375 996.472656 L 955.84375 1117.171875 C 955.839844 1119.273438 954.316406 1121.070312 952.242188 1121.414062 L 861.898438 1136.011719 C 859.578125 1136.40625 857.71875 1138.089844 857.140625 1140.320312 C 849.082031 1170.71875 837.933594 1198.988281 823.703125 1225.140625 C 822.996094 1226.445312 823.074219 1228.011719 823.894531 1229.1875 L 879.132812 1307.445312 C 879.972656 1308.621094 879.78125 1310.269531 878.683594 1311.300781 L 794 1390.328125 C 791.832031 1392.367188 788.535156 1392.605469 786.089844 1390.910156 L 714.199219 1340.5625 C 712.152344 1339.136719 709.46875 1338.988281 707.257812 1340.175781 C 682.304688 1353.765625 655.578125 1364.824219 627.070312 1373.355469 C 624.789062 1374.019531 623.089844 1375.945312 622.699219 1378.304688 L 607.070312 1468.007812 C 606.832031 1469.296875 605.742188 1470.257812 604.433594 1470.324219 C 603.363281 1470.363281 583.683594 1470.386719 545.40625 1470.386719 C 507.164062 1470.347656 487.511719 1470.300781 486.4375 1470.261719 C 485.128906 1470.191406 484.039062 1469.234375 483.800781 1467.949219 L 468.238281 1378.246094 C 467.84375 1375.882812 466.144531 1373.957031 463.867188 1373.292969 C 435.359375 1364.71875 408.652344 1353.617188 383.746094 1339.984375 C 381.53125 1338.800781 378.847656 1338.949219 376.804688 1340.371094 L 304.847656 1390.65625 C 302.40625 1392.359375 299.105469 1392.113281 296.9375 1390.078125 L 212.3125 1310.984375 C 211.21875 1309.949219 211.023438 1308.300781 211.863281 1307.128906 L 267.230469 1228.871094 C 268.054688 1227.691406 268.125 1226.121094 267.421875 1224.824219 C 253.191406 1198.671875 242.066406 1170.398438 234.046875 1140.003906 C 233.46875 1137.777344 231.605469 1136.089844 229.289062 1135.695312 L 138.9375 1120.964844 C 136.863281 1120.621094 135.339844 1118.824219 135.335938 1116.722656 L 135.464844 996.023438 C 135.457031 994.738281 136.414062 993.644531 137.714844 993.453125 L 229.796875 980.976562 C 232.25 980.625 234.253906 978.847656 234.875 976.472656 C 242.507812 947.195312 253.417969 919.585938 267.605469 893.652344 C 268.273438 892.441406 268.195312 890.96875 267.410156 889.859375 L 212.628906 811.476562 C 211.457031 809.769531 211.734375 807.445312 213.273438 806.011719 L 299.441406 725.117188 C 300.859375 723.765625 303.039062 723.601562 304.648438 724.730469 L 379.886719 777.972656 C 381.289062 778.953125 383.125 779.027344 384.578125 778.164062 C 409.570312 763.933594 435.785156 752.851562 463.222656 744.921875 C 465.398438 744.242188 467.011719 742.433594 467.398438 740.226562 L 483.214844 651.554688 C 483.695312 648.949219 486.035156 647.105469 488.679688 647.242188 C 490.566406 647.289062 509.621094 647.308594 545.84375 647.308594 Z M 736.179688 1059.8125 C 736.179688 954.625 650.90625 869.351562 545.71875 869.351562 C 440.527344 869.351562 355.253906 954.625 355.253906 1059.8125 C 355.253906 1165.003906 440.527344 1250.277344 545.71875 1250.277344 C 650.90625 1250.277344 736.179688 1165.003906 736.179688 1059.8125 Z M 736.179688 1059.8125 " fill-opacity="1" fill-rule="nonzero"/></g></svg>