<svg xmlns="http://www.w3.org/2000/svg" xmlns:xlink="http://www.w3.org/1999/xlink" width="2000" zoomAndPan="magnify" viewBox="0 0 1500 1499.999933" height="2000" preserveAspectRatio="xMidYMid meet" version="1.0"><defs><clipPath id="0998dd4f60"><path d="M 90.375 642.046875 L 930.375 642.046875 L 930.375 1482.046875 L 90.375 1482.046875 Z M 90.375 642.046875 " clip-rule="nonzero"/></clipPath><clipPath id="cf8695c235"><path d="M 510.25 18.203125 L 1350.25 18.203125 L 1350.25 858.203125 L 510.25 858.203125 Z M 510.25 18.203125 " clip-rule="nonzero"/></clipPath></defs><g clip-path="url(#0998dd4f60)"><path fill="#97182e" d="M 105.011719 1139.628906 L 187.40625 1148.933594 L 220.578125 1229.023438 L 168.894531 1293.871094 C 166.054688 1297.433594 165.925781 1302.445312 168.566406 1306.152344 C 195.496094 1343.898438 228.378906 1376.726562 266.292969 1403.726562 C 269.992188 1406.355469 275.003906 1406.226562 278.570312 1403.398438 L 343.367188 1351.773438 L 423.480469 1385.035156 L 432.835938 1467.472656 C 433.34375 1472 436.804688 1475.644531 441.296875 1476.386719 C 464.265625 1480.195312 487.34375 1482.101562 510.398438 1482.101562 C 533.457031 1482.101562 556.496094 1480.191406 579.332031 1476.382812 C 583.828125 1475.628906 587.273438 1471.992188 587.792969 1467.464844 L 597.109375 1385.070312 L 677.300781 1351.851562 L 742.257812 1403.496094 C 745.816406 1406.324219 750.828125 1406.453125 754.535156 1403.816406 C 792.378906 1376.792969 825.191406 1343.960938 852.035156 1306.242188 C 854.675781 1302.535156 854.546875 1297.527344 851.707031 1293.964844 L 800.042969 1229.0625 L 833.175781 1148.890625 L 915.589844 1139.535156 C 920.113281 1139.019531 923.75 1135.574219 924.507812 1131.089844 C 932.226562 1085.199219 932.277344 1038.777344 924.65625 993.105469 C 923.90625 988.613281 920.269531 985.160156 915.746094 984.644531 L 833.195312 975.273438 L 800.023438 895.179688 L 851.765625 830.1875 C 854.605469 826.621094 854.734375 821.609375 852.085938 817.902344 C 825.171875 780.214844 792.308594 747.421875 754.40625 720.4375 C 750.699219 717.789062 745.6875 717.925781 742.132812 720.765625 L 677.242188 772.4375 L 597.109375 739.171875 L 587.75 656.734375 C 587.242188 652.214844 583.796875 648.578125 579.3125 647.820312 C 533.664062 640.136719 487.25 640.117188 441.367188 647.78125 C 436.882812 648.527344 433.425781 652.164062 432.914062 656.6875 L 423.5 739.132812 L 343.304688 772.355469 L 278.457031 720.667969 C 274.890625 717.828125 269.871094 717.699219 266.171875 720.347656 C 228.476562 747.253906 195.644531 780.09375 168.5625 817.953125 C 165.910156 821.65625 166.042969 826.675781 168.882812 830.242188 L 220.558594 895.144531 L 187.425781 975.316406 L 105.109375 984.628906 C 100.585938 985.140625 96.949219 988.585938 96.191406 993.074219 C 88.46875 1038.992188 88.429688 1085.457031 96.09375 1131.171875 C 96.851562 1135.667969 100.488281 1139.113281 105.011719 1139.628906 Z M 115.113281 1004.035156 L 195.707031 994.917969 C 199.402344 994.5 202.570312 992.105469 203.984375 988.675781 L 241.710938 897.386719 C 243.125 893.957031 242.578125 890.039062 240.265625 887.132812 L 189.6875 823.613281 C 213.023438 792.261719 240.605469 764.679688 271.824219 741.472656 L 335.296875 792.0625 C 338.195312 794.375 342.140625 794.9375 345.558594 793.507812 L 436.863281 755.683594 C 440.289062 754.261719 442.671875 751.101562 443.089844 747.414062 L 452.304688 666.71875 C 490.9375 661.027344 529.898438 661.039062 568.351562 666.746094 L 577.515625 747.445312 C 577.925781 751.125 580.316406 754.292969 583.734375 755.714844 L 674.96875 793.585938 C 678.40625 795.023438 682.34375 794.472656 685.242188 792.148438 L 748.773438 741.5625 C 780.152344 764.816406 807.753906 792.347656 830.957031 823.554688 L 780.308594 887.171875 C 777.996094 890.078125 777.441406 894.007812 778.867188 897.4375 L 816.640625 988.640625 C 818.054688 992.066406 821.222656 994.453125 824.910156 994.871094 L 905.710938 1004.042969 C 911.367188 1042.515625 911.328125 1081.492188 905.578125 1120.132812 L 824.890625 1129.289062 C 821.191406 1129.707031 818.023438 1132.097656 816.609375 1135.53125 L 778.882812 1226.820312 C 777.46875 1230.246094 778.015625 1234.167969 780.328125 1237.074219 L 830.90625 1300.605469 C 807.75 1331.84375 780.207031 1359.40625 748.871094 1382.691406 L 685.289062 1332.136719 C 682.398438 1329.832031 678.464844 1329.273438 675.035156 1330.699219 L 583.734375 1368.515625 C 580.304688 1369.9375 577.914062 1373.105469 577.496094 1376.796875 L 568.378906 1457.441406 C 529.90625 1463.113281 490.90625 1463.101562 452.234375 1457.441406 L 443.078125 1376.761719 C 442.667969 1373.082031 440.277344 1369.910156 436.859375 1368.492188 L 345.625 1330.617188 C 342.199219 1329.195312 338.261719 1329.742188 335.355469 1332.058594 L 271.921875 1382.597656 C 240.535156 1359.324219 212.921875 1331.765625 189.695312 1300.507812 L 240.285156 1237.035156 C 242.597656 1234.132812 243.15625 1230.203125 241.730469 1226.769531 L 203.953125 1135.566406 C 202.53125 1132.140625 199.363281 1129.753906 195.675781 1129.335938 L 115.023438 1120.222656 C 109.335938 1081.710938 109.363281 1042.707031 115.113281 1004.035156 Z M 115.113281 1004.035156 " fill-opacity="1" fill-rule="nonzero"/></g><path fill="#97182e" d="M 510.316406 1291.957031 C 637.074219 1291.957031 740.195312 1188.832031 740.195312 1062.074219 C 740.195312 935.320312 637.074219 832.195312 510.316406 832.195312 C 383.5625 832.195312 280.433594 935.320312 280.433594 1062.074219 C 280.433594 1188.832031 383.5625 1291.957031 510.316406 1291.957031 Z M 510.316406 852.601562 C 625.824219 852.601562 719.789062 946.570312 719.789062 1062.074219 C 719.789062 1177.582031 625.824219 1271.550781 510.316406 1271.550781 C 394.8125 1271.550781 300.839844 1177.582031 300.839844 1062.074219 C 300.839844 946.570312 394.8125 852.601562 510.316406 852.601562 Z M 510.316406 852.601562 " fill-opacity="1" fill-rule="nonzero"/><g clip-path="url(#cf8695c235)"><path fill="#97182e" d="M 524.886719 515.785156 L 607.28125 525.089844 L 640.453125 605.179688 L 588.769531 670.027344 C 585.929688 673.589844 585.800781 678.601562 588.441406 682.308594 C 615.371094 720.058594 648.253906 752.882812 686.167969 779.882812 C 689.867188 782.511719 694.878906 782.382812 698.445312 779.554688 L 763.242188 727.929688 L 843.355469 761.191406 L 852.710938 843.628906 C 853.222656 848.15625 856.679688 851.800781 861.171875 852.542969 C 884.140625 856.351562 907.21875 858.257812 930.273438 858.257812 C 953.332031 858.257812 976.371094 856.347656 999.207031 852.539062 C 1003.703125 851.785156 1007.148438 848.148438 1007.667969 843.621094 L 1016.984375 761.226562 L 1097.179688 728.007812 L 1162.136719 779.652344 C 1165.691406 782.480469 1170.703125 782.609375 1174.410156 779.972656 C 1212.253906 752.949219 1245.066406 720.117188 1271.910156 682.398438 C 1274.550781 678.691406 1274.421875 673.683594 1271.582031 670.121094 L 1219.917969 605.21875 L 1253.050781 525.046875 L 1335.464844 515.691406 C 1339.988281 515.179688 1343.625 511.730469 1344.382812 507.246094 C 1352.101562 461.355469 1352.152344 414.933594 1344.53125 369.261719 C 1343.785156 364.769531 1340.144531 361.316406 1335.621094 360.800781 L 1253.070312 351.429688 L 1219.898438 271.335938 L 1271.640625 206.347656 C 1274.480469 202.777344 1274.613281 197.765625 1271.960938 194.058594 C 1245.046875 156.371094 1212.1875 123.578125 1174.28125 96.59375 C 1170.574219 93.945312 1165.5625 94.082031 1162.007812 96.921875 L 1097.117188 148.59375 L 1016.984375 115.328125 L 1007.625 32.890625 C 1007.117188 28.371094 1003.671875 24.734375 999.1875 23.976562 C 953.539062 16.292969 907.125 16.273438 861.242188 23.9375 C 856.757812 24.683594 853.300781 28.320312 852.792969 32.84375 L 843.375 115.289062 L 763.183594 148.511719 L 698.332031 96.828125 C 694.765625 93.988281 689.746094 93.855469 686.046875 96.503906 C 648.351562 123.410156 615.519531 156.25 588.4375 194.109375 C 585.785156 197.816406 585.917969 202.832031 588.757812 206.398438 L 640.433594 271.300781 L 607.300781 351.472656 L 524.984375 360.785156 C 520.460938 361.296875 516.824219 364.742188 516.066406 369.230469 C 508.347656 415.148438 508.304688 461.613281 515.96875 507.328125 C 516.726562 511.824219 520.363281 515.269531 524.886719 515.785156 Z M 534.992188 380.191406 L 615.582031 371.074219 C 619.277344 370.65625 622.445312 368.261719 623.859375 364.832031 L 661.585938 273.542969 C 663 270.113281 662.453125 266.195312 660.140625 263.289062 L 609.5625 199.773438 C 632.898438 168.417969 660.480469 140.835938 691.699219 117.632812 L 755.171875 168.21875 C 758.070312 170.53125 762.015625 171.09375 765.433594 169.664062 L 856.738281 131.839844 C 860.164062 130.421875 862.546875 127.257812 862.964844 123.570312 L 872.183594 42.875 C 910.8125 37.183594 949.773438 37.195312 988.226562 42.902344 L 997.390625 123.601562 C 997.800781 127.28125 1000.191406 130.449219 1003.609375 131.871094 L 1094.84375 169.742188 C 1098.28125 171.179688 1102.21875 170.628906 1105.117188 168.304688 L 1168.648438 117.722656 C 1200.027344 140.972656 1227.628906 168.503906 1250.835938 199.710938 L 1200.183594 263.328125 C 1197.875 266.234375 1197.316406 270.164062 1198.742188 273.59375 L 1236.515625 364.796875 C 1237.929688 368.222656 1241.097656 370.609375 1244.785156 371.027344 L 1325.585938 380.199219 C 1331.246094 418.671875 1331.203125 457.648438 1325.453125 496.289062 L 1244.765625 505.445312 C 1241.066406 505.863281 1237.898438 508.257812 1236.484375 511.6875 L 1198.757812 602.976562 C 1197.34375 606.402344 1197.890625 610.324219 1200.203125 613.230469 L 1250.78125 676.761719 C 1227.625 708 1200.082031 735.5625 1168.746094 758.847656 L 1105.164062 708.292969 C 1102.277344 705.988281 1098.339844 705.429688 1094.910156 706.855469 L 1003.609375 744.671875 C 1000.183594 746.09375 997.789062 749.261719 997.371094 752.953125 L 988.253906 833.597656 C 949.78125 839.269531 910.78125 839.257812 872.109375 833.597656 L 862.953125 752.917969 C 862.542969 749.238281 860.152344 746.070312 856.734375 744.648438 L 765.503906 706.773438 C 762.074219 705.351562 758.136719 705.898438 755.230469 708.214844 L 691.796875 758.753906 C 660.410156 735.480469 632.796875 707.921875 609.570312 676.664062 L 660.160156 613.191406 C 662.472656 610.289062 663.03125 606.359375 661.605469 602.925781 L 623.832031 511.722656 C 622.40625 508.296875 619.238281 505.910156 615.550781 505.492188 L 534.902344 496.378906 C 529.210938 457.867188 529.242188 418.863281 534.992188 380.191406 Z M 534.992188 380.191406 " fill-opacity="1" fill-rule="nonzero"/></g><path fill="#97182e" d="M 930.195312 668.113281 C 1056.949219 668.113281 1160.070312 564.988281 1160.070312 438.230469 C 1160.070312 311.476562 1056.949219 208.351562 930.195312 208.351562 C 803.4375 208.351562 700.308594 311.476562 700.308594 438.230469 C 700.308594 564.988281 803.4375 668.113281 930.195312 668.113281 Z M 930.195312 228.757812 C 1045.699219 228.757812 1139.664062 322.726562 1139.664062 438.230469 C 1139.664062 553.738281 1045.699219 647.707031 930.195312 647.707031 C 814.6875 647.707031 720.714844 553.738281 720.714844 438.230469 C 720.714844 322.726562 814.6875 228.757812 930.195312 228.757812 Z M 930.195312 228.757812 " fill-opacity="1" fill-rule="nonzero"/></svg>